<?xml version="1.0" standalone="no"?><!DOCTYPE svg PUBLIC "-//W3C//DTD SVG 1.1//EN" "http://www.w3.org/Graphics/SVG/1.1/DTD/svg11.dtd"><svg t="1542111113777" class="icon" style="" viewBox="0 0 1024 1024" version="1.1" xmlns="http://www.w3.org/2000/svg" p-id="14413" xmlns:xlink="http://www.w3.org/1999/xlink" width="128" height="128"><defs><style type="text/css"></style></defs><path d="M418.63168 520.74496v-50.21696h-92.69248v-24.82176l91.09504-125.52192h22.46656v132.83328h29.63456v17.5104H439.5008v50.21696h-20.86912z m-74.4448-67.72736h74.4448v-104.6528l-74.4448 104.6528zM634.34752 419.14368c0 15.6672-1.47456 29.75744-4.44416 42.25024-2.9696 12.51328-7.35232 23.16288-13.12768 31.96928-5.79584 8.8064-13.0048 15.5648-21.66784 20.29568-8.66304 4.7104-18.67776 7.08608-30.06464 7.08608s-21.38112-2.3552-30.0032-7.08608-15.81056-11.48928-21.6064-20.29568c-5.79584-8.8064-10.1376-19.456-13.06624-31.96928a185.7536 185.7536 0 0 1-4.38272-42.25024c0-15.5648 1.45408-29.63456 4.38272-42.1888 2.90816-12.55424 7.2704-23.2448 13.06624-32.11264a60.25216 60.25216 0 0 1 21.6064-20.35712c8.6016-4.7104 18.61632-7.0656 30.0032-7.0656s21.4016 2.3552 30.06464 7.0656c8.66304 4.73088 15.89248 11.50976 21.66784 20.35712 5.79584 8.84736 10.17856 19.5584 13.12768 32.11264 2.9696 12.57472 4.44416 26.624 4.44416 42.1888z m-116.46976-0.06144c0 14.86848 1.20832 27.60704 3.64544 38.21568s5.79584 19.31264 10.07616 26.112c4.28032 6.79936 9.25696 11.81696 14.97088 15.01184 5.69344 3.21536 11.83744 4.8128 18.47296 4.8128 6.61504 0 12.8-1.59744 18.5344-4.8128 5.7344-3.21536 10.752-8.21248 15.03232-15.01184 4.28032-6.79936 7.63904-15.50336 10.07616-26.112 2.43712-10.58816 3.64544-23.32672 3.64544-38.21568 0-14.86848-1.20832-27.648-3.64544-38.27712-2.43712-10.6496-5.79584-19.39456-10.07616-26.25536-4.28032-6.8608-9.29792-11.89888-15.03232-15.1552a36.94592 36.94592 0 0 0-18.5344-4.89472c-6.61504 0-12.77952 1.6384-18.47296 4.89472-5.69344 3.25632-10.69056 8.31488-14.97088 15.1552-4.28032 6.8608-7.63904 15.60576-10.07616 26.25536-2.43712 10.62912-3.64544 23.38816-3.64544 38.27712zM753.43872 520.74496v-50.21696h-92.69248v-24.82176l91.07456-125.52192h22.46656v132.83328h29.63456v17.5104h-29.63456v50.21696h-20.84864z m-74.42432-67.72736h74.4448v-104.6528l-74.4448 104.6528z" fill="#2c2c2c" p-id="14414"></path><path d="M565.41184 139.4688l5.3248-2.3552 19.39456 43.7248-5.3248 2.3552z" fill="#2c2c2c" p-id="14415"></path><path d="M553.7792 161.9968l46.8992-9.4208 1.14688 5.69344-46.8992 9.44128zM652.00128 138.21952c-2.08896 0-4.28032-0.22528-6.57408-0.65536-8.8064-1.67936-18.18624-6.47168-26.43968-13.49632-8.25344-7.02464-14.45888-15.54432-17.5104-23.98208-3.01056-8.37632-2.64192-15.89248 1.00352-21.4016a9.40032 9.40032 0 0 1 4.99712-4.28032c2.29376-0.75776 4.93568-1.88416 8.15104-3.21536 8.0896-3.3792 13.9264-6.98368 16.87552-10.46528a52.28544 52.28544 0 0 0 11.65312-26.3168l8.704 0.73728a60.416 60.416 0 0 1-13.68064 31.21152c-3.8912 4.58752-10.69056 8.92928-20.19328 12.88192-3.072 1.29024-5.98016 2.33472-8.31488 3.11296l-0.26624 0.3072c-2.64192 3.09248-2.88768 8.37632-0.69632 14.47936 2.53952 7.02464 7.84384 14.2336 14.9504 20.29568 7.10656 6.06208 15.07328 10.15808 22.40512 11.55072 5.69344 1.06496 10.42432 0.32768 13.25056-2.048 0.47104-4.21888 2.84672-18.10432 13.98784-30.08512 9.74848-10.48576 33.71008-15.89248 34.7136-16.13824l1.90464 8.51968c-6.18496 1.37216-23.6544 6.49216-30.208 13.53728a45.62944 45.62944 0 0 0-11.75552 25.64096s-0.22528 1.2288-0.36864 1.65888a25.2928 25.2928 0 0 1-0.67584 1.59744c-3.6864 4.32128-9.19552 6.5536-15.91296 6.5536z" fill="#2c2c2c" p-id="14416"></path><path d="M620.17536 117.84192L578.3552 158.72M575.2832 155.58656l41.82016-40.87808 6.10304 6.22592-41.82016 40.89856z" fill="#2c2c2c" p-id="14417"></path><path d="M666.15296 122.44992c-10.4448-0.57344-22.30272-6.18496-32.5632-15.38048-10.79296-9.68704-17.92-21.8112-19.0464-32.4608l5.79584-0.6144c0.96256 9.1136 7.53664 20.13184 17.14176 28.73344 9.15456 8.21248 19.98848 13.4144 28.9792 13.90592l-0.3072 5.81632zM697.91744 93.45024c-10.69056 0-23.71584-5.50912-35.18464-15.79008-8.54016-7.65952-14.88896-16.85504-17.85856-25.88672-3.25632-9.85088-2.17088-18.47296 3.03104-24.2688 10.28096-11.44832 32.8704-7.3728 51.46624 9.3184 18.57536 16.67072 25.088 38.7072 14.82752 50.15552-3.93216 4.36224-9.66656 6.47168-16.2816 6.47168z m-33.77152-63.77472c-4.096 0-7.51616 1.16736-9.74848 3.64544-4.07552 4.54656-2.51904 11.79648-1.24928 15.70816 2.49856 7.59808 7.96672 15.44192 15.40096 22.09792 14.4384 12.94336 32.3584 17.53088 39.13728 9.99424 6.7584-7.53664 0.28672-24.86272-14.15168-37.82656-9.70752-8.704-20.97152-13.6192-29.3888-13.6192z" fill="#2c2c2c" p-id="14418"></path><path d="M707.6864 82.24768c-10.42432 0-23.2448-5.46816-34.304-15.38048-15.4624-13.86496-22.79424-32.33792-17.42848-43.95008l5.28384 2.43712c-4.23936 9.19552 2.64192 25.16992 16.03584 37.1712 14.1312 12.67712 31.62112 17.57184 39.81312 11.14112l1.61792 2.06848s0.02048 3.05152-0.73728 4.23936a22.15936 22.15936 0 0 1-10.28096 2.27328z" fill="#2c2c2c" p-id="14419"></path><path d="M792.24832 844.73856H332.65664a6.71744 6.71744 0 0 1 0-13.43488h459.61216a6.71744 6.71744 0 1 1-0.02048 13.43488z" fill="#2c2c2c" p-id="14420"></path><path d="M792.2688 847.6672H332.65664a9.66656 9.66656 0 0 1 0-19.27168h459.61216a9.6256 9.6256 0 0 1 0 19.27168z m-459.61216-13.43488a3.7888 3.7888 0 1 0 0 7.59808h459.61216a3.7888 3.7888 0 0 0 0-7.59808H332.65664z" fill="#2c2c2c" p-id="14421"></path><path d="M792.24832 759.93088H332.65664a6.71744 6.71744 0 0 1 0-13.43488h459.61216a6.71744 6.71744 0 1 1-0.02048 13.43488z" fill="#2c2c2c" p-id="14422"></path><path d="M792.2688 762.83904H332.65664a9.66656 9.66656 0 0 1-9.64608-9.6256c0-5.30432 4.34176-9.6256 9.64608-9.6256h459.61216a9.6256 9.6256 0 0 1 0 19.2512z m-459.61216-13.4144a3.80928 3.80928 0 0 0-3.80928 3.7888c0 2.08896 1.69984 3.7888 3.80928 3.7888h459.61216a3.7888 3.7888 0 0 0 0-7.5776H332.65664z" fill="#2c2c2c" p-id="14423"></path><path d="M505.58976 675.1232h-172.93312a6.71744 6.71744 0 0 1 0-13.43488h172.93312a6.71744 6.71744 0 0 1 0 13.43488z" fill="#2c2c2c" p-id="14424"></path><path d="M505.56928 678.03136h-172.93312c-5.30432 0-9.64608-4.32128-9.64608-9.6256s4.34176-9.6256 9.64608-9.6256h172.93312a9.6256 9.6256 0 0 1 0 19.2512z m-172.91264-13.43488a3.80928 3.80928 0 0 0-3.80928 3.7888c0 2.08896 1.69984 3.7888 3.80928 3.7888h172.93312a3.80928 3.80928 0 0 0 3.80928-3.7888 3.7888 3.7888 0 0 0-3.80928-3.7888h-172.93312z" fill="#2c2c2c" p-id="14425"></path><path d="M876.81024 69.61152h-151.90016c0.2048 2.47808 1.08544 13.49632-6.77888 23.30624h158.65856c12.88192 0 23.36768 10.48576 23.36768 23.36768v841.09312c0 12.88192-10.48576 23.36768-23.36768 23.36768h-745.472a23.38816 23.38816 0 0 1-23.36768-23.36768V352.62464c0-12.88192 10.48576-23.36768 23.36768-23.36768H225.28v505.20064a11.6736 11.6736 0 0 0 23.32672 0l-0.02048-0.34816V116.28544c0-12.88192 10.48576-23.36768 23.36768-23.36768h321.47456c0-4.62848-0.512-15.19616 8.56064-23.30624H271.93344A46.73536 46.73536 0 0 0 225.28 116.28544v189.66528H131.31776a46.6944 46.6944 0 0 0-46.65344 46.65344v604.75392a46.6944 46.6944 0 0 0 46.65344 46.65344h745.49248a46.73536 46.73536 0 0 0 46.67392-46.65344V116.28544a46.73536 46.73536 0 0 0-46.67392-46.67392z" fill="#2c2c2c" p-id="14426"></path></svg>