<?xml version="1.0" encoding="UTF-8"?>
<svg width="60px" height="60px" viewBox="0 0 60 60" version="1.1" xmlns="http://www.w3.org/2000/svg" xmlns:xlink="http://www.w3.org/1999/xlink">
    <!-- Generator: Sketch 51.3 (57544) - http://www.bohemiancoding.com/sketch -->
    <title>Shape</title>
    <desc>Created with Sketch.</desc>
    <defs></defs>
    <g id="share-page" stroke="none" stroke-width="1" fill="none" fill-rule="evenodd">
        <g id="Custom-Preset" transform="translate(-797.000000, -34.000000)" fill="#04A699" fill-rule="nonzero">
            <path d="M827,94 C810.437508,94 797,80.5624917 797,64 C797,47.4375083 810.437508,34 827,34 C843.562564,34 857,47.4375083 857,64 C857,80.5624917 843.562564,94 827,94 Z M801.375035,64.0000075 C801.375035,78.1314547 812.868545,89.6249652 826.999993,89.6249652 C841.13144,89.6249652 852.625038,78.1314547 852.625038,64.0000075 C852.625038,49.8685603 841.13144,38.3749622 826.999993,38.3749622 C812.868545,38.3749622 801.375035,49.8685603 801.375035,64.0000075 Z M840.359389,66.1875537 L827.898443,78.6484276 C827.625026,78.8828576 827.312549,79.0000363 827,79.0000363 C826.687523,79.0000363 826.375047,78.8828576 826.101557,78.6484276 L813.601551,66.1484215 C813.250015,65.7578258 813.132836,65.2499788 813.328134,64.781264 C813.52336,64.3125492 813.992147,64 814.499994,64 L822.000012,64 L822.000012,50.2500151 C822.000012,49.5468703 822.546919,49.0000363 823.250064,49.0000363 L830.750082,49.0000363 C831.453227,49.0000363 832.000061,49.5469429 832.000061,50.2500151 L832.000061,64 L839.500151,64 C840.203296,64 840.75013,64.5469066 840.75013,65.2499788 C840.750057,65.6015876 840.593747,65.9139915 840.359389,66.1875537 Z" id="Shape"></path>
        </g>
    </g>
</svg>